<svg width="111" height="19" viewBox="0 0 111 19" fill="none" xmlns="http://www.w3.org/2000/svg">
<path d="M4.784 17.664C4.784 17.92 4.024 18.048 2.504 18.048C0.968 18.048 0.2 17.928 0.2 17.688V2.04C0.2 1.48 0.496 1.2 1.088 1.2H5.672C9.88 1.2 11.984 2.84 11.984 6.12C11.984 7.112 11.792 8.016 11.408 8.832C11.024 9.632 10.48 10.272 9.776 10.752L12.8 15.792C12.672 16.176 12.256 16.616 11.552 17.112C10.592 17.8 9.8 18.144 9.176 18.144C8.552 18.144 8.088 17.92 7.784 17.472L5.528 12.216H4.784V17.664ZM4.784 5.448V9.048H4.904C6.424 9.048 7.184 8.416 7.184 7.152C7.184 6.576 7.032 6.152 6.728 5.88C6.44 5.592 5.96 5.448 5.288 5.448H4.784ZM23.3083 17.352C22.3003 17.944 21.0043 18.24 19.4203 18.24C17.8363 18.24 16.5003 17.704 15.4123 16.632C14.3243 15.544 13.7803 14.048 13.7803 12.144C13.7803 10.224 14.3003 8.68 15.3403 7.512C16.3963 6.344 17.7243 5.76 19.3242 5.76C20.9243 5.76 22.1563 6.168 23.0203 6.984C23.9003 7.8 24.3403 8.792 24.3403 9.96C24.3403 12.552 22.8523 13.848 19.8763 13.848H18.2203C18.2203 14.328 18.3483 14.664 18.6043 14.856C18.8763 15.032 19.2683 15.12 19.7803 15.12C20.9003 15.12 21.9643 14.864 22.9723 14.352C22.9883 14.336 23.0603 14.448 23.1883 14.688C23.5723 15.376 23.7643 15.96 23.7643 16.44C23.7643 16.904 23.6123 17.208 23.3083 17.352ZM20.3083 10.416C20.3083 9.744 19.9803 9.408 19.3242 9.408C19.0203 9.408 18.7563 9.504 18.5323 9.696C18.3243 9.872 18.2203 10.136 18.2203 10.488V11.232H19.5163C20.0443 11.232 20.3083 10.96 20.3083 10.416ZM27.4201 9.288C26.9721 8.488 26.7481 7.84 26.7481 7.344C26.7481 6.832 26.8841 6.504 27.1561 6.36C28.0681 5.96 29.3161 5.76 30.9001 5.76C32.5001 5.76 33.6281 6.136 34.2841 6.888C34.9401 7.624 35.2681 8.72 35.2681 10.176V13.968H36.0841C36.3561 13.968 36.5641 14.128 36.7081 14.448C36.8681 14.768 36.9481 15.208 36.9481 15.768C36.9481 16.328 36.8041 16.88 36.5161 17.424C36.2441 17.968 35.8681 18.24 35.3881 18.24C34.5241 18.24 33.8281 18.008 33.3001 17.544C33.0601 17.352 32.8761 17.12 32.7481 16.848C32.0121 17.776 30.8681 18.24 29.3161 18.24C28.1481 18.24 27.1641 17.824 26.3641 16.992C25.5641 16.16 25.1641 15.176 25.1641 14.04C25.1641 11.432 26.7241 10.128 29.8441 10.128H31.1641V9.888C31.1641 9.472 31.0921 9.208 30.9481 9.096C30.8201 8.968 30.5081 8.904 30.0121 8.904C29.4041 8.904 28.5401 9.032 27.4201 9.288ZM29.3401 13.704C29.3401 14.056 29.4361 14.328 29.6281 14.52C29.8201 14.696 30.0601 14.784 30.3481 14.784C30.6521 14.784 30.9241 14.664 31.1641 14.424V12.576H30.4921C29.7241 12.576 29.3401 12.952 29.3401 13.704ZM42.2426 12.048C42.2426 13.616 42.8346 14.4 44.0186 14.4C44.7866 14.4 45.4266 14.248 45.9386 13.944C46.1786 13.944 46.3706 14.36 46.5146 15.192C46.6746 16.008 46.7546 16.568 46.7546 16.872C46.7546 17.16 46.7146 17.352 46.6346 17.448C45.7866 17.976 44.6266 18.24 43.1546 18.24C41.6826 18.24 40.4266 17.696 39.3866 16.608C38.3626 15.504 37.8506 14.008 37.8506 12.12C37.8506 10.216 38.3546 8.68 39.3626 7.512C40.3866 6.344 41.7386 5.76 43.4186 5.76C45.1146 5.76 46.2906 6.168 46.9466 6.984C47.0906 7.16 47.1626 7.424 47.1626 7.776C47.1626 8.112 47.0986 8.528 46.9706 9.024C46.6826 10.048 46.3066 10.64 45.8426 10.8C45.7786 10.816 45.6826 10.824 45.5546 10.824C45.4426 10.824 45.2986 10.728 45.1226 10.536C44.4986 9.912 43.9946 9.6 43.6106 9.6C43.2426 9.6 42.9226 9.792 42.6506 10.176C42.3786 10.56 42.2426 11.184 42.2426 12.048ZM53.9984 17.856C53.9984 18.048 53.3264 18.144 51.9824 18.144C50.3824 18.08 49.5824 17.976 49.5824 17.832V9.336H48.3584C48.0384 9.336 47.8784 8.784 47.8784 7.68C47.8784 7.392 47.9024 7.04 47.9504 6.624C48.0144 6.208 48.1344 6 48.3104 6H49.5824V3.888C49.5824 3.568 50.2544 3.408 51.5984 3.408C52.9584 3.408 53.6384 3.536 53.6384 3.792V5.328L53.6624 6H55.7024C55.9744 6 56.1104 6.56 56.1104 7.68C56.1104 8.8 55.9744 9.36 55.7024 9.36H53.9984V17.856ZM58.0584 12.144C58.3624 12.384 58.8824 12.712 59.6184 13.128C60.3704 13.544 61.0824 13.752 61.7544 13.752C62.4424 13.752 62.7864 13.488 62.7864 12.96C62.7864 12.72 62.6904 12.512 62.4984 12.336C62.3064 12.144 61.9544 11.928 61.4424 11.688C60.9304 11.448 60.5464 11.264 60.2904 11.136C60.0344 10.992 59.6904 10.768 59.2584 10.464C58.8424 10.144 58.5224 9.816 58.2984 9.48C57.6584 8.568 57.3384 7.408 57.3384 6C57.3384 4.592 57.8584 3.408 58.8984 2.448C59.9544 1.472 61.3304 0.983999 63.0264 0.983999C64.1784 0.983999 65.2424 1.112 66.2184 1.368C67.1944 1.608 67.6984 1.928 67.7304 2.328C67.7304 2.376 67.7304 2.424 67.7304 2.472C67.7304 3.032 67.5544 3.744 67.2024 4.608C66.8504 5.456 66.6024 5.928 66.4584 6.024C65.4344 5.496 64.5144 5.232 63.6984 5.232C62.8984 5.232 62.4984 5.52 62.4984 6.096C62.4984 6.448 62.7944 6.76 63.3864 7.032C63.5144 7.096 63.6984 7.184 63.9384 7.296C64.1784 7.408 64.4504 7.544 64.7544 7.704C65.0744 7.848 65.4104 8.04 65.7624 8.28C66.1304 8.504 66.5224 8.808 66.9384 9.192C67.7864 9.992 68.2104 11.048 68.2104 12.36C68.2104 14.072 67.7384 15.472 66.7944 16.56C65.8504 17.648 64.3944 18.208 62.4264 18.24C61.4664 18.24 60.5944 18.16 59.8104 18C59.0424 17.84 58.3704 17.528 57.7944 17.064C57.2184 16.6 56.9304 16.04 56.9304 15.384C56.9304 14.728 57.0504 14.08 57.2904 13.44C57.5304 12.784 57.7864 12.352 58.0584 12.144ZM75.5844 17.856C75.5844 18.048 74.9124 18.144 73.5684 18.144C71.9684 18.08 71.1684 17.976 71.1684 17.832V9.336H69.9444C69.6244 9.336 69.4644 8.784 69.4644 7.68C69.4644 7.392 69.4884 7.04 69.5364 6.624C69.6004 6.208 69.7204 6 69.8964 6H71.1684V3.888C71.1684 3.568 71.8404 3.408 73.1844 3.408C74.5444 3.408 75.2244 3.536 75.2244 3.792V5.328L75.2484 6H77.2884C77.5604 6 77.6964 6.56 77.6964 7.68C77.6964 8.8 77.5604 9.36 77.2884 9.36H75.5844V17.856ZM79.9323 16.584C78.9403 15.48 78.4443 13.952 78.4443 12C78.4443 10.048 78.9403 8.52 79.9323 7.416C80.9403 6.312 82.2923 5.76 83.9883 5.76C85.6843 5.76 87.0283 6.312 88.0203 7.416C89.0123 8.52 89.5083 10.048 89.5083 12C89.5083 13.952 89.0123 15.48 88.0203 16.584C87.0283 17.688 85.6843 18.24 83.9883 18.24C82.2923 18.24 80.9403 17.688 79.9323 16.584ZM83.9883 9.768C83.0923 9.768 82.6443 10.504 82.6443 11.976C82.6443 13.448 83.0923 14.184 83.9883 14.184C84.9003 14.184 85.3563 13.448 85.3563 11.976C85.3563 10.504 84.9003 9.768 83.9883 9.768ZM96.461 17.976C96.461 18.088 95.733 18.144 94.277 18.144C92.821 18.112 92.093 18.048 92.093 17.952V9.984H91.445C91.189 9.984 90.981 9.832 90.821 9.528C90.677 9.208 90.605 8.816 90.605 8.352C90.605 6.624 91.117 5.76 92.141 5.76C92.861 5.76 93.461 5.984 93.941 6.432C94.421 6.864 94.661 7.36 94.661 7.92C94.997 7.264 95.445 6.744 96.005 6.36C96.581 5.96 97.165 5.76 97.757 5.76C98.685 5.76 99.245 6 99.437 6.48C99.485 6.608 99.509 6.8 99.509 7.056C99.509 7.296 99.429 7.736 99.269 8.376C99.125 9.016 98.973 9.48 98.813 9.768C98.653 10.056 98.557 10.2 98.525 10.2C98.493 10.2 98.341 10.144 98.069 10.032C97.813 9.904 97.581 9.84 97.373 9.84C96.765 9.84 96.461 10.32 96.461 11.28V17.976ZM109.793 17.352C108.785 17.944 107.489 18.24 105.905 18.24C104.321 18.24 102.985 17.704 101.897 16.632C100.809 15.544 100.265 14.048 100.265 12.144C100.265 10.224 100.785 8.68 101.825 7.512C102.881 6.344 104.209 5.76 105.809 5.76C107.409 5.76 108.641 6.168 109.505 6.984C110.385 7.8 110.825 8.792 110.825 9.96C110.825 12.552 109.337 13.848 106.361 13.848H104.705C104.705 14.328 104.833 14.664 105.089 14.856C105.361 15.032 105.753 15.12 106.265 15.12C107.385 15.12 108.449 14.864 109.457 14.352C109.473 14.336 109.545 14.448 109.673 14.688C110.057 15.376 110.249 15.96 110.249 16.44C110.249 16.904 110.097 17.208 109.793 17.352ZM106.793 10.416C106.793 9.744 106.465 9.408 105.809 9.408C105.505 9.408 105.241 9.504 105.017 9.696C104.809 9.872 104.705 10.136 104.705 10.488V11.232H106.001C106.529 11.232 106.793 10.96 106.793 10.416Z" fill="url(#paint0_linear_242_2)"/>
<defs>
<linearGradient id="paint0_linear_242_2" x1="-1" y1="9.5" x2="112" y2="9.5" gradientUnits="userSpaceOnUse">
<stop stop-color="#673DE6"/>
<stop offset="1" stop-color="#F300F8"/>
</linearGradient>
</defs>
</svg>
