<svg width="481.89500732421874px" height="120.8px" xmlns="http://www.w3.org/2000/svg" viewBox="9.05249633789063 14.600000000000001 481.89500732421874 120.8" style="background: rgba(0, 0, 0, 0);" preserveAspectRatio="xMidYMid"><defs><linearGradient id="editing-gradow-gradient" x1="0" x2="1" y1="0.5" y2="0.5" gradientUnits="objectBoundingBox"><stop offset="0" stop-color="#f0f"></stop><stop offset="1" stop-color="#0ff"></stop></linearGradient><filter id="editing-gradow-filter" x="-100%" y="-100%" width="300%" height="300%"><feFlood flood-color="#fffcd9" result="flood"></feFlood><feComposite operator="in" in2="SourceAlpha" in="flood" result="shadow"></feComposite><feOffset dx="-4" dy="-4" in="SourceGraphic" result="offset-1"></feOffset><feOffset dx="4" dy="4" in="shadow" result="offset-2"></feOffset><feMerge><feMergeNode in="offset-2"></feMergeNode><feMergeNode in="offset-1"></feMergeNode></feMerge></filter></defs><g filter="url(#editing-gradow-filter)"><g transform="translate(80.46502900123596, 97.39999961853027)"><path d="M14.21 0L0.51 0L8.32-42.05L8.32-42.05Q14.66-42.75 23.90-42.75L23.90-42.75L23.90-42.75Q33.15-42.75 37.44-40.06L37.44-40.06L37.44-40.06Q41.73-37.38 41.73-31.97L41.73-31.97L41.73-31.97Q41.73-26.56 38.94-23.17L38.94-23.17L38.94-23.17Q36.16-19.78 31.36-18.69L31.36-18.69L31.36-18.69Q32.45-13.38 34.94-9.09L34.94-9.09L34.94-9.09Q37.25-5.06 39.94-3.78L39.94-3.78L39.94-3.78Q38.98-1.09 37.02 0.10L37.02 0.10L37.02 0.10Q35.07 1.28 32.29 1.28L32.29 1.28L32.29 1.28Q29.50 1.28 27.33-0.35L27.33-0.35L27.33-0.35Q25.15-1.98 23.42-4.99L23.42-4.99L23.42-4.99Q19.78-11.52 19.39-21.82L19.39-21.82L19.84-21.82L19.84-21.82Q24.58-21.95 26.94-24.42L26.94-24.42L26.94-24.42Q29.31-26.88 29.31-32.06L29.31-32.06L29.31-32.06Q29.31-38.53 23.87-38.78L23.87-38.78L22.46-38.78L22.46-38.78Q21.89-38.78 21.57-38.72L21.57-38.72L14.21 0ZM70.59-10.82L70.59-10.82L70.59-10.82Q72.19-9.73 72.19-7.33L72.19-7.33L72.19-7.33Q72.19-4.93 70.98-3.39L70.98-3.39L70.98-3.39Q69.76-1.86 67.78-0.83L67.78-0.83L67.78-0.83Q63.68 1.28 59.26 1.28L59.26 1.28L59.26 1.28Q54.85 1.28 52.26 0.32L52.26 0.32L52.26 0.32Q49.66-0.64 47.94-2.43L47.94-2.43L47.94-2.43Q44.54-5.82 44.54-12.03L44.54-12.03L44.54-12.03Q44.54-21.70 49.79-27.58L49.79-27.58L49.79-27.58Q55.42-33.92 65.22-33.92L65.22-33.92L65.22-33.92Q71.30-33.92 74.30-31.36L74.30-31.36L74.30-31.36Q76.54-29.44 76.54-26.30L76.54-26.30L76.54-26.30Q76.54-15.04 57.09-15.04L57.09-15.04L57.09-15.04Q56.83-13.38 56.83-11.97L56.83-11.97L56.83-11.97Q56.83-9.02 58.14-7.90L58.14-7.90L58.14-7.90Q59.46-6.78 61.89-6.78L61.89-6.78L61.89-6.78Q64.32-6.78 66.91-7.90L66.91-7.90L66.91-7.90Q69.50-9.02 70.59-10.82ZM57.54-17.79L57.54-17.79L57.54-17.79Q62.08-17.79 64.70-20.61L64.70-20.61L64.70-20.61Q67.33-23.30 67.33-27.58L67.33-27.58L67.33-27.58Q67.33-29.06 66.78-29.86L66.78-29.86L66.78-29.86Q66.24-30.66 65.15-30.66L65.15-30.66L65.15-30.66Q64.06-30.66 63.14-30.24L63.14-30.24L63.14-30.24Q62.21-29.82 61.25-28.42L61.25-28.42L61.25-28.42Q58.88-25.22 57.54-17.79ZM81.50-1.92L81.50-1.92L81.50-1.92Q80-3.58 79.33-6.21L79.33-6.21L79.33-6.21Q78.66-8.83 78.66-13.12L78.66-13.12L78.66-13.12Q78.66-17.41 80.13-21.31L80.13-21.31L80.13-21.31Q81.60-25.22 84.29-28.03L84.29-28.03L84.29-28.03Q89.79-33.92 98.88-33.92L98.88-33.92L98.88-33.92Q102.14-33.92 104.51-32.83L104.51-32.83L115.46-33.92L110.72-8.96L110.72-8.96Q110.53-8.19 110.53-6.78L110.53-6.78L110.53-6.78Q110.53-5.38 111.39-4.48L111.39-4.48L111.39-4.48Q112.26-3.58 113.54-3.46L113.54-3.46L113.54-3.46Q112.90-1.28 110.56 0L110.56 0L110.56 0Q108.22 1.28 105.60 1.28L105.60 1.28L105.60 1.28Q102.98 1.28 101.22 0.29L101.22 0.29L101.22 0.29Q99.46-0.70 98.94-2.37L98.94-2.37L98.94-2.37Q97.92-0.77 95.74 0.26L95.74 0.26L95.74 0.26Q93.57 1.28 90.66 1.28L90.66 1.28L90.66 1.28Q87.74 1.28 85.38 0.51L85.38 0.51L85.38 0.51Q83.01-0.26 81.50-1.92ZM95.01-27.90L95.01-27.90L95.01-27.90Q94.27-26.75 93.63-24.80L93.63-24.80L93.63-24.80Q92.99-22.85 91.94-17.63L91.94-17.63L91.94-17.63Q90.88-12.42 90.88-8.70L90.88-8.70L90.88-8.70Q90.88-4.99 91.46-3.90L91.46-3.90L91.46-3.90Q92.03-2.82 93.06-2.82L93.06-2.82L93.06-2.82Q95.10-2.82 96.61-4.77L96.61-4.77L96.61-4.77Q98.11-6.72 98.69-10.18L98.69-10.18L102.08-28.93L102.08-28.93Q100.74-30.08 99.17-30.08L99.17-30.08L99.17-30.08Q97.60-30.08 96.67-29.57L96.67-29.57L96.67-29.57Q95.74-29.06 95.01-27.90ZM150.08-26.62L150.08-26.62L150.08-26.62Q150.08-23.94 147.84-22.27L147.84-22.27L147.84-22.27Q145.60-20.61 141.95-20.61L141.95-20.61L141.95-20.61Q140.42-20.61 139.52-21.06L139.52-21.06L139.52-21.06Q140.22-22.72 140.45-24.80L140.45-24.80L140.45-24.80Q140.67-26.88 140.67-27.46L140.67-27.46L140.67-27.46Q140.67-30.14 138.82-30.14L138.82-30.14L138.82-30.14Q137.54-30.14 136.10-28.54L136.10-28.54L136.10-28.54Q134.66-26.94 133.44-24.45L133.44-24.45L133.44-24.45Q130.75-18.69 130.75-12.86L130.75-12.86L130.75-12.86Q130.75-9.66 131.97-8.22L131.97-8.22L131.97-8.22Q133.18-6.78 135.87-6.78L135.87-6.78L135.87-6.78Q139.58-6.78 142.53-9.86L142.53-9.86L142.53-9.86Q143.36-10.82 143.81-11.90L143.81-11.90L143.81-11.90Q146.24-10.62 146.24-7.10L146.24-7.10L146.24-7.10Q146.24-3.52 142.27-1.15L142.27-1.15L142.27-1.15Q138.18 1.28 131.65 1.28L131.65 1.28L131.65 1.28Q118.66 1.28 118.66-12.48L118.66-12.48L118.66-12.48Q118.66-22.53 124.35-28.29L124.35-28.29L124.35-28.29Q129.86-33.92 139.97-33.92L139.97-33.92L139.97-33.92Q150.08-33.92 150.08-26.62ZM152.83-6.40L152.83-6.40L152.83-6.40Q152.83-8.13 153.73-12.48L153.73-12.48L157.12-29.76L153.34-29.76L153.60-31.68L153.60-31.68Q161.28-33.98 168.70-39.62L168.70-39.62L171.78-39.62L170.24-32.64L175.23-32.64L174.66-29.76L169.73-29.76L166.46-12.48L166.46-12.48Q165.63-8.51 165.63-7.17L165.63-7.17L165.63-7.17Q165.63-4.10 168.32-3.46L168.32-3.46L168.32-3.46Q167.68-1.28 165.38 0L165.38 0L165.38 0Q163.07 1.28 159.81 1.28L159.81 1.28L159.81 1.28Q156.54 1.28 154.69-0.77L154.69-0.77L154.69-0.77Q152.83-2.82 152.83-6.40ZM199.87-29.57L199.87-29.57L199.87-29.57Q200.83-31.49 200.83-33.28L200.83-33.28L200.83-33.28Q200.83-35.07 200.64-36.06L200.64-36.06L200.64-36.06Q200.45-37.06 200-37.82L200-37.82L200-37.82Q199.04-39.49 197.12-39.49L197.12-39.49L197.12-39.49Q194.75-39.49 192.83-37.76L192.83-37.76L192.83-37.76Q190.78-35.97 190.78-33.15L190.78-33.15L190.78-33.15Q190.78-31.36 192.03-29.98L192.03-29.98L192.03-29.98Q193.28-28.61 195.20-27.33L195.20-27.33L195.20-27.33Q197.12-26.05 199.30-24.77L199.30-24.77L199.30-24.77Q201.47-23.49 203.39-21.95L203.39-21.95L203.39-21.95Q207.81-18.43 207.81-13.70L207.81-13.70L207.81-13.70Q207.81-10.50 206.11-7.78L206.11-7.78L206.11-7.78Q204.42-5.06 201.60-3.07L201.60-3.07L201.60-3.07Q195.46 1.28 187.33 1.28L187.33 1.28L187.33 1.28Q180.74 1.28 177.34-0.86L177.34-0.86L177.34-0.86Q173.95-3.01 173.95-6.27L173.95-6.27L173.95-6.27Q173.95-12.10 178.50-13.57L178.50-13.57L178.50-13.57Q179.78-14.02 181.73-14.02L181.73-14.02L181.73-14.02Q183.68-14.02 185.92-13.18L185.92-13.18L185.92-13.18Q184.90-10.56 184.90-8.19L184.90-8.19L184.90-8.19Q184.90-3.07 188.54-3.07L188.54-3.07L188.54-3.07Q190.91-3.07 192.86-4.80L192.86-4.80L192.86-4.80Q194.82-6.53 194.82-8.48L194.82-8.48L194.82-8.48Q194.82-10.43 193.57-11.84L193.57-11.84L193.57-11.84Q192.32-13.25 190.46-14.37L190.46-14.37L190.46-14.37Q188.61-15.49 186.46-16.58L186.46-16.58L186.46-16.58Q184.32-17.66 182.46-19.20L182.46-19.20L182.46-19.20Q178.11-22.72 178.11-28.35L178.11-28.35L178.11-28.35Q178.11-32 179.90-34.85L179.90-34.85L179.90-34.85Q181.70-37.70 184.58-39.62L184.58-39.62L184.58-39.62Q190.34-43.52 197.41-43.52L197.41-43.52L197.41-43.52Q204.48-43.52 207.90-41.41L207.90-41.41L207.90-41.41Q211.33-39.30 211.33-35.71L211.33-35.71L211.33-35.71Q211.33-32.58 208.90-30.59L208.90-30.59L208.90-30.59Q206.78-28.93 204.22-28.93L204.22-28.93L204.22-28.93Q201.66-28.93 199.87-29.57ZM213.70-6.40L213.70-6.40L213.70-6.40Q213.70-8.13 214.59-12.48L214.59-12.48L217.98-29.76L214.21-29.76L214.46-31.68L214.46-31.68Q222.14-33.98 229.57-39.62L229.57-39.62L232.64-39.62L231.10-32.64L236.10-32.64L235.52-29.76L230.59-29.76L227.33-12.48L227.33-12.48Q226.50-8.51 226.50-7.17L226.50-7.17L226.50-7.17Q226.50-4.10 229.18-3.46L229.18-3.46L229.18-3.46Q228.54-1.28 226.24 0L226.24 0L226.24 0Q223.94 1.28 220.67 1.28L220.67 1.28L220.67 1.28Q217.41 1.28 215.55-0.77L215.55-0.77L215.55-0.77Q213.70-2.82 213.70-6.40ZM249.47 1.28L249.47 1.28L249.47 1.28Q235.39 1.28 235.39-11.97L235.39-11.97L235.39-11.97Q235.39-21.38 240.58-27.46L240.58-27.46L240.58-27.46Q246.08-33.92 255.62-33.92L255.62-33.92L255.62-33.92Q262.53-33.92 266.05-30.72L266.05-30.72L266.05-30.72Q269.57-27.52 269.57-20.80L269.57-20.80L269.57-20.80Q269.57-10.56 264.06-4.61L264.06-4.61L264.06-4.61Q258.69 1.28 249.47 1.28ZM251.14-26.56L251.14-26.56L251.14-26.56Q250.37-24.83 249.76-22.24L249.76-22.24L249.76-22.24Q249.15-19.65 248.38-15.55L248.38-15.55L248.38-15.55Q247.62-11.46 247.62-6.40L247.62-6.40L247.62-6.40Q247.62-4.74 248.16-3.65L248.16-3.65L248.16-3.65Q248.70-2.56 250.18-2.56L250.18-2.56L250.18-2.56Q251.65-2.56 252.58-3.26L252.58-3.26L252.58-3.26Q253.50-3.97 254.21-5.63L254.21-5.63L254.21-5.63Q255.49-8.58 256.51-14.05L256.51-14.05L256.51-14.05Q257.54-19.52 257.63-21.89L257.63-21.89L257.63-21.89Q257.73-24.26 257.73-26.02L257.73-26.02L257.73-26.02Q257.73-27.78 257.22-28.93L257.22-28.93L257.22-28.93Q256.70-30.08 255.26-30.08L255.26-30.08L255.26-30.08Q253.82-30.08 252.86-29.18L252.86-29.18L252.86-29.18Q251.90-28.29 251.14-26.56ZM293.38-17.98L293.38-17.98L293.38-17.98Q295.68-22.08 295.68-26.24L295.68-26.24L295.68-26.24Q295.68-28.99 293.70-28.99L293.70-28.99L293.70-28.99Q292.16-28.99 290.56-26.37L290.56-26.37L290.56-26.37Q288.90-23.74 288.38-20.35L288.38-20.35L285.06 0L271.81 1.28L278.34-32.64L288.90-33.92L287.74-27.46L287.74-27.46Q290.88-33.92 297.92-33.92L297.92-33.92L297.92-33.92Q301.63-33.92 303.65-32L303.65-32L303.65-32Q305.66-30.08 305.66-26.14L305.66-26.14L305.66-26.14Q305.66-22.21 303.07-19.71L303.07-19.71L303.07-19.71Q300.48-17.22 296.06-17.22L296.06-17.22L296.06-17.22Q294.14-17.22 293.38-17.98ZM332.61-10.82L332.61-10.82L332.61-10.82Q334.21-9.73 334.21-7.33L334.21-7.33L334.21-7.33Q334.21-4.93 332.99-3.39L332.99-3.39L332.99-3.39Q331.78-1.86 329.79-0.83L329.79-0.83L329.79-0.83Q325.70 1.28 321.28 1.28L321.28 1.28L321.28 1.28Q316.86 1.28 314.27 0.32L314.27 0.32L314.27 0.32Q311.68-0.64 309.95-2.43L309.95-2.43L309.95-2.43Q306.56-5.82 306.56-12.03L306.56-12.03L306.56-12.03Q306.56-21.70 311.81-27.58L311.81-27.58L311.81-27.58Q317.44-33.92 327.23-33.92L327.23-33.92L327.23-33.92Q333.31-33.92 336.32-31.36L336.32-31.36L336.32-31.36Q338.56-29.44 338.56-26.30L338.56-26.30L338.56-26.30Q338.56-15.04 319.10-15.04L319.10-15.04L319.10-15.04Q318.85-13.38 318.85-11.97L318.85-11.97L318.85-11.97Q318.85-9.02 320.16-7.90L320.16-7.90L320.16-7.90Q321.47-6.78 323.90-6.78L323.90-6.78L323.90-6.78Q326.34-6.78 328.93-7.90L328.93-7.90L328.93-7.90Q331.52-9.02 332.61-10.82ZM319.55-17.79L319.55-17.79L319.55-17.79Q324.10-17.79 326.72-20.61L326.72-20.61L326.72-20.61Q329.34-23.30 329.34-27.58L329.34-27.58L329.34-27.58Q329.34-29.06 328.80-29.86L328.80-29.86L328.80-29.86Q328.26-30.66 327.17-30.66L327.17-30.66L327.17-30.66Q326.08-30.66 325.15-30.24L325.15-30.24L325.15-30.24Q324.22-29.82 323.26-28.42L323.26-28.42L323.26-28.42Q320.90-25.22 319.55-17.79Z" fill="url(#editing-gradow-gradient)"></path></g></g><style>text {
  font-size: 64px;
  font-family: Arial Black;
  dominant-baseline: central;
  text-anchor: middle;
}</style></svg>